# xmcd
#
# Track frame offsets: 
#        150
#        12440
#        22264
#        37667
#        48126
#        58750
#        74197
#        85029
#        95331
#        107710
#        118962
#        129388
#        140561
#        153026
#        164093
#
# Disc length: 2319 seconds
#
# Revision: 2
# Processed by: cddbd v1.5.2PL0 Copyright (c) Steve Scherf et al.
# Submitted via: ExactAudioCopyFreeDBPlugin 1.0
#
DISCID=cd090d0f
DTITLE=Various Artist - Million Sellers 50's
DYEAR=2003
DGENRE=Oldies
TTITLE0=Nat King Cole - Mona Lisa
TTITLE1=Mario Lanza - Because You´re Mine
TTITLE2=Vera Lynn - Yours
TTITLE3=Frankie Lane - I Believe
TTITLE4=Fats Domino - Blueberry Hill
TTITLE5=Louis Armstrong - Mack The Knife
TTITLE6=Guy Mitchell - Singin The Blues
TTITLE7=Jimmy Rodgers - Honey Comb
TTITLE8=Kingston Trio - Tom Dooley
TTITLE9=Dinah Washington - What A Difference A Day Makes
TTITLE10=Pat Boone - Love Letters In The Sand
TTITLE11=Sara Vaughan - Broken Hearted Melody
TTITLE12=Jerry Butler - For Your Precious Love
TTITLE13=Ferlin Husky - Gone
TTITLE14=Bill Haley and the Comets - Rock Around The Clock
EXTD=
EXTT0=
EXTT1=
EXTT2=
EXTT3=
EXTT4=
EXTT5=
EXTT6=
EXTT7=
EXTT8=
EXTT9=
EXTT10=
EXTT11=
EXTT12=
EXTT13=
EXTT14=
PLAYORDER=
